# xmcd
#
# Track frame offsets:
#	150
#	17613
#	43022
#	66245
#	88662
#	114271
#	127316
#	147959
#
# Disc length: 2355 seconds
#
# Revision: 1
# Processed by: cddbd v1.5.1PL0 Copyright (c) Steve Scherf et al.
# Submitted via: EasyCDDAExtractor 8.0.2.1
#
DISCID=6e093108
DTITLE=Deep Purple - Dusseldorf 03-09-05 Disc 1
DYEAR=2005
DGENRE=Hard Rock
TTITLE0=Fireball 
TTITLE1=Strange Kind Of Woman
TTITLE2=Wrong Man
TTITLE3=Demon's Eye
TTITLE4=Rapture Of The Deep 
TTITLE5=Well Dressed Guitar
TTITLE6=Don Airey Solo
TTITLE7=Perfect Stranger
EXTD=
EXTT0=
EXTT1=
EXTT2=
EXTT3=
EXTT4=
EXTT5=
EXTT6=
EXTT7=
PLAYORDER=
